<svg width="184" height="54" viewBox="0 0 184 54" fill="none" xmlns="http://www.w3.org/2000/svg">
<g clip-path="url(#clip0_268_2917)">
<path d="M59.0184 7.34341C57.5755 6.45139 55.7067 6 53.4624 6C50.1107 6 47.1823 7.1016 44.765 9.26986C42.4382 11.3575 40.4389 15.4898 38.6552 21.9087H26.8324L28.6746 13.0717C29.1006 10.9572 29.6996 9.74274 30.3172 9.74274C30.8949 9.74274 31.5552 10.4521 32.2313 11.7955C33.3814 14.0578 34.8137 15.205 36.4855 15.205C37.6516 15.205 38.626 14.794 39.3847 13.9852C40.1354 13.1846 40.5161 12.2334 40.5161 11.1641C40.5161 9.5681 39.7441 8.2838 38.2186 7.34072C36.7757 6.4487 34.9069 5.99731 32.6626 5.99731C29.3109 5.99731 26.3851 7.09891 23.9652 9.26717C21.5719 11.4113 19.4821 15.6645 17.7463 21.906H12.2435L11.1893 26.0732H16.8598L14.2162 38.5293C13.2046 43.2581 12.3394 46.4339 11.6419 47.9681C11.0216 49.3357 10.3747 50.0289 9.72508 50.0289C9.3364 50.0289 8.86785 49.8784 8.70279 48.7016C8.32742 46.09 6.89782 44.7654 4.45391 44.7654C3.28254 44.7654 2.24162 45.1872 1.35511 46.0175C0.460608 46.8584 0.00537109 47.909 0.00537109 49.1449C0.00537109 50.5045 0.580407 51.6705 1.71451 52.6163C2.81666 53.5352 4.54709 54.0027 6.85522 54.0027C11.6099 54.0027 15.2917 52.1757 18.1084 48.4195C20.696 44.9669 23.0627 38.8356 24.7665 31.154L25.9246 26.0786H37.7741L34.9974 38.5347C33.9857 43.2635 33.1205 46.4393 32.423 47.9735C31.8027 49.3411 31.1585 50.0343 30.5062 50.0343C30.1176 50.0343 29.649 49.8838 29.4813 48.707C29.1059 46.0954 27.6763 44.7708 25.2324 44.7708C24.061 44.7708 23.0201 45.1926 22.1336 46.0228C21.2364 46.8638 20.7839 47.9171 20.7839 49.1503C20.7839 50.5098 21.3589 51.6759 22.493 52.6217C23.5978 53.5406 25.3256 54.0081 27.6337 54.0081C32.3485 54.0081 36.1475 52.13 38.9241 48.4249C41.613 44.838 44.0169 38.704 45.6941 31.1594L46.8495 26.084H52.8821L53.9416 21.9167H47.76L49.4798 13.0798C49.9057 10.9652 50.5047 9.7508 51.1223 9.7508C51.7 9.7508 52.3603 10.4601 53.0338 11.8035C54.1839 14.0658 55.6161 15.2131 57.288 15.2131C58.4541 15.2131 59.4284 14.802 60.1872 13.9933C60.9379 13.1926 61.3186 12.2415 61.3186 11.1721C61.3186 9.57616 60.5465 8.29186 59.0211 7.34878L59.0184 7.34341Z" fill="black"/>
<path d="M127.679 40.8213C127.679 40.8213 126.098 42.651 123.359 43.7418C121.82 44.3571 120.233 44.7252 118.545 44.7252C115.422 44.7252 112.824 43.7123 110.75 41.6864C108.674 39.6605 107.638 36.5734 107.638 32.4249C107.638 27.8251 108.802 24.4639 111.128 22.3413C113.455 20.2187 116.218 19.1547 119.418 19.1547C121.183 19.1547 122.754 19.4181 124.131 19.9474C125.507 20.4767 126.689 21.2693 127.679 22.3252V15.5222C127.679 14.0552 127.45 13.0422 126.995 12.4834C126.54 11.9245 125.478 11.6478 123.808 11.6478V8.65466L136.313 6.33594V36.302C136.313 39.7815 136.686 41.8825 139.997 41.8825V44.7279C133.88 44.7655 127.677 44.7279 127.677 44.7279V40.8239L127.679 40.8213ZM127.679 36.7695V25.8476C126.846 25.0254 126.007 24.4155 125.163 24.0125C124.32 23.6122 123.481 23.4107 122.648 23.4107C120.96 23.4107 119.695 24.0851 118.851 25.4365C118.007 26.788 117.587 28.8219 117.587 31.5437C117.587 34.4804 117.97 36.6809 118.737 38.1479C119.504 39.6149 120.651 40.3484 122.184 40.3484C123.231 40.3484 124.282 40.0206 125.339 39.365C126.396 38.7094 127.176 37.8443 127.682 36.7668L127.679 36.7695Z" fill="black"/>
<path d="M75.6438 37.6426C73.7376 39.9748 71.6478 41.1409 69.3769 41.1409C67.2392 41.1409 65.6365 40.3456 64.569 38.7523C63.5014 37.159 62.9663 34.7785 62.9663 31.6134H79.078C79.078 27.379 77.888 24.2166 75.5106 22.1289C73.1333 20.0413 70.0877 18.9961 66.3713 18.9961C62.6549 18.9961 59.5135 20.1326 56.8859 22.4057C54.2583 24.6787 52.9458 27.8062 52.9458 31.7907C52.9458 35.7753 54.3035 38.935 57.0163 41.2752C59.7318 43.6181 62.993 44.7869 66.8052 44.7869C69.2891 44.7869 71.5546 44.2683 73.6045 43.2285C75.2338 42.401 76.5595 41.3961 77.5872 40.2193L75.6677 37.6641L75.6411 37.648L75.6438 37.6426ZM63.8342 23.8297C64.4305 22.7603 65.325 22.2256 66.5204 22.2256C68.8871 22.2256 70.1303 24.3724 70.2448 28.666H62.9397C62.9397 26.5084 63.2379 24.8963 63.8342 23.827V23.8297Z" fill="black"/>
<path d="M96.7126 41.1409C94.5749 41.1409 92.9722 40.3456 91.9047 38.7523C90.8371 37.159 90.302 34.7785 90.302 31.6134H106.414C106.414 27.379 105.224 24.2166 102.846 22.1289C100.469 20.0413 97.4234 18.9961 93.707 18.9961C89.9906 18.9961 86.8492 20.1326 84.2216 22.4057C81.594 24.6787 80.2815 27.8062 80.2815 31.7907C80.2815 35.7753 81.6392 38.935 84.352 41.2752C87.0675 43.6181 90.3287 44.7869 94.1409 44.7869C96.6248 44.7869 98.8903 44.2683 100.94 43.2285C102.527 42.4252 103.823 41.4525 104.84 40.316L102.902 37.734C101.017 40.007 98.9515 41.1435 96.71 41.1435L96.7126 41.1409ZM91.1673 23.8297C91.7636 22.7603 92.6581 22.2256 93.8534 22.2256C96.2201 22.2256 97.4634 24.3724 97.5778 28.666H90.2728C90.2728 26.5084 90.5709 24.8963 91.1673 23.827V23.8297Z" fill="black"/>
</g>
<path d="M143.98 14H141.86V3.28V2.86C141.86 2.86 141.86 2.85333 141.86 2.84C141.86 2.81333 141.86 2.79333 141.86 2.78C141.86 2.54 141.82 2.32667 141.74 2.14C141.66 1.94 141.48 1.84 141.2 1.84L140.34 1.82V0.6C141.167 0.613333 141.98 0.573333 142.78 0.479999C143.593 0.373333 144.393 0.219999 145.18 0.0199988V6.34C145.487 5.80667 145.92 5.42667 146.48 5.2C147.04 4.97333 147.627 4.86 148.24 4.86C149.64 4.86 150.673 5.34 151.34 6.3C152.02 7.26 152.36 8.39333 152.36 9.7C152.36 11.02 151.973 12.14 151.2 13.06C150.44 13.98 149.373 14.44 148 14.44C147.96 14.44 147.92 14.44 147.88 14.44C147.84 14.44 147.8 14.44 147.76 14.44C147.173 14.4133 146.607 14.2867 146.06 14.06C145.527 13.8333 145.093 13.48 144.76 13L143.98 14ZM145.18 9V10.56C145.18 11.1867 145.3 11.7333 145.54 12.2C145.793 12.6667 146.28 12.9 147 12.9C147.587 12.9 148 12.6933 148.24 12.28C148.48 11.8533 148.633 11.38 148.7 10.86C148.727 10.6733 148.74 10.4867 148.74 10.3C148.753 10.1133 148.76 9.94 148.76 9.78C148.76 9.64667 148.753 9.50667 148.74 9.36C148.74 9.2 148.733 9.04667 148.72 8.9C148.68 8.36667 148.54 7.88 148.3 7.44C148.073 6.98667 147.64 6.76 147 6.76C146.373 6.76 145.913 6.99333 145.62 7.46C145.34 7.91333 145.193 8.41333 145.18 8.96C145.18 8.97333 145.18 8.98667 145.18 9C145.18 9 145.18 9.00667 145.18 9.02V9ZM161.687 11.2L163.167 11.7C162.701 12.6067 162.067 13.2933 161.267 13.76C160.467 14.2133 159.561 14.44 158.547 14.44C157.054 14.44 155.807 14.0267 154.807 13.2C153.807 12.36 153.307 11.1533 153.307 9.58C153.307 8.07333 153.827 6.91333 154.867 6.1C155.921 5.27333 157.161 4.86 158.587 4.86C160.067 4.86 161.194 5.3 161.967 6.18C162.741 7.06 163.134 8.22 163.147 9.66L157.007 9.64C157.007 9.70667 157.007 9.76667 157.007 9.82C157.007 9.87333 157.007 9.92667 157.007 9.98C157.021 10.7133 157.154 11.3867 157.407 12C157.661 12.6 158.247 12.9 159.167 12.9C159.741 12.9 160.241 12.74 160.667 12.42C161.094 12.0867 161.434 11.6867 161.687 11.22V11.2ZM159.967 8.38C159.967 8.36667 159.967 8.35333 159.967 8.34C159.967 8.32667 159.974 8.31333 159.987 8.3C159.987 8.27333 159.987 8.25333 159.987 8.24C159.987 8.22667 159.987 8.21333 159.987 8.2C159.987 8.17333 159.987 8.14667 159.987 8.12C159.987 8.09333 159.987 8.06667 159.987 8.04C159.974 7.58667 159.867 7.17333 159.667 6.8C159.481 6.41333 159.114 6.22 158.567 6.22C157.981 6.22 157.594 6.41333 157.407 6.8C157.234 7.18667 157.121 7.60667 157.067 8.06C157.054 8.12667 157.041 8.18667 157.027 8.24C157.027 8.29333 157.027 8.34667 157.027 8.4L159.967 8.38ZM168.619 1.84V5.52H170.839V6.78H168.619V11.92C168.619 12.16 168.652 12.38 168.719 12.58C168.785 12.7667 168.959 12.86 169.239 12.86C169.545 12.86 169.785 12.7533 169.959 12.54C170.132 12.3267 170.265 12.0933 170.359 11.84C170.385 11.7733 170.405 11.7133 170.419 11.66C170.445 11.5933 170.465 11.5333 170.479 11.48L171.699 11.92C171.379 12.7467 170.959 13.3733 170.439 13.8C169.919 14.2267 169.205 14.44 168.299 14.44C167.445 14.44 166.732 14.2267 166.159 13.8C165.585 13.36 165.299 12.6867 165.299 11.78V6.78H163.939V5.52C165.152 5.41333 165.965 5.05333 166.379 4.44C166.792 3.82667 167.045 2.96667 167.139 1.86L168.619 1.84ZM183.767 11.74C183.714 12.6333 183.42 13.2933 182.887 13.72C182.367 14.1333 181.674 14.34 180.807 14.34C180.274 14.34 179.794 14.24 179.367 14.04C178.954 13.8533 178.574 13.5667 178.227 13.18C178.2 13.1933 178.174 13.2133 178.147 13.24C178.134 13.2533 178.12 13.2733 178.107 13.3C177.694 13.6733 177.267 13.9533 176.827 14.14C176.387 14.34 175.874 14.44 175.287 14.44C174.5 14.44 173.814 14.24 173.227 13.84C172.654 13.4267 172.367 12.7933 172.367 11.94C172.367 10.8067 172.747 10.0467 173.507 9.66C174.267 9.27333 175.107 8.98 176.027 8.78C176.094 8.76667 176.154 8.75333 176.207 8.74C176.274 8.72667 176.34 8.71333 176.407 8.7C176.687 8.63333 176.967 8.56667 177.247 8.5C177.527 8.43333 177.787 8.36 178.027 8.28V7.18C178.027 6.84667 177.914 6.6 177.687 6.44C177.474 6.26667 177.194 6.18 176.847 6.18C176.354 6.18 176.04 6.28667 175.907 6.5C175.787 6.71333 175.7 6.94667 175.647 7.2C175.594 7.46667 175.5 7.71333 175.367 7.94C175.234 8.15333 174.894 8.26 174.347 8.26C174.307 8.26 174.267 8.26 174.227 8.26C174.2 8.26 174.174 8.26 174.147 8.26C173.867 8.23333 173.607 8.15333 173.367 8.02C173.127 7.87333 172.994 7.64667 172.967 7.34C172.967 6.64667 173.24 6.13333 173.787 5.8C174.334 5.45333 174.934 5.22 175.587 5.1C175.88 5.03333 176.167 4.99333 176.447 4.98C176.727 4.95333 176.98 4.94 177.207 4.94C178.434 4.94 179.434 5.15333 180.207 5.58C180.98 6.00667 181.367 6.90667 181.367 8.28V12.4C181.367 12.56 181.407 12.6933 181.487 12.8C181.567 12.9067 181.68 12.96 181.827 12.96C182.027 12.96 182.167 12.8867 182.247 12.74C182.34 12.58 182.407 12.4067 182.447 12.22C182.46 12.14 182.467 12.06 182.467 11.98C182.48 11.9 182.487 11.8267 182.487 11.76L183.767 11.74ZM178.027 9.58C178 9.60667 177.974 9.62667 177.947 9.64C177.92 9.65333 177.887 9.66 177.847 9.66C177.74 9.7 177.627 9.74 177.507 9.78C177.387 9.82 177.274 9.86667 177.167 9.92C176.78 10.0667 176.427 10.2533 176.107 10.48C175.787 10.7067 175.627 11.0333 175.627 11.46C175.627 11.7933 175.74 12.08 175.967 12.32C176.194 12.56 176.48 12.68 176.827 12.68C177.2 12.68 177.494 12.58 177.707 12.38C177.92 12.1667 178.027 11.88 178.027 11.52V9.58Z" fill="black"/>
<defs>
<clipPath id="clip0_268_2917">
<rect width="140" height="48" fill="white" transform="translate(0 6)"/>
</clipPath>
</defs>
</svg>
