<svg width="32" height="32" viewBox="0 0 32 32" fill="none" xmlns="http://www.w3.org/2000/svg">
<path d="M28.0516 7.5265C27.447 7.17657 26.6619 7 25.717 7C24.3046 7 23.0715 7.4334 22.0516 8.28843C21.0692 9.11242 20.2241 10.7497 19.4674 13.2934L19.4549 13.3362H14.2933L15.0942 9.74593C15.2042 9.23334 15.4504 8.37404 15.8554 8.37404C16.1299 8.37404 16.4226 8.65976 16.7266 9.22478C17.2053 10.1044 17.7964 10.5496 18.4838 10.5496C18.9626 10.5496 19.363 10.3923 19.6739 10.083C19.9824 9.77482 20.139 9.41098 20.139 9.00006C20.139 8.38688 19.8202 7.89141 19.1906 7.52757C18.5859 7.17871 17.7998 7.00107 16.8559 7.00107C15.4436 7.00107 14.2104 7.43447 13.1906 8.2895C12.1809 9.13596 11.295 10.8203 10.5587 13.2945L10.5462 13.3373H8.2025L7.78503 14.8793H10.198L9.05559 19.911C8.62337 21.7987 8.25354 23.0679 7.95406 23.6821C7.67839 24.2493 7.38457 24.5371 7.08054 24.5371C6.80034 24.5371 6.64265 24.3531 6.58253 23.9571C6.42711 22.9502 5.83834 22.4397 4.83324 22.4397C4.35111 22.4397 3.92116 22.6024 3.55474 22.9223C3.18605 23.2455 3 23.65 3 24.1251C3 24.6474 3.2371 25.0979 3.70562 25.4617C4.16393 25.8191 4.88769 26 5.85649 26C7.86217 26 9.41407 25.2798 10.6018 23.7988C11.6999 22.4301 12.7028 19.9956 13.4277 16.9457L13.9314 14.8782H19.1078L17.9075 19.911C17.4753 21.7987 17.1055 23.0679 16.806 23.6821C16.5303 24.2493 16.2365 24.5371 15.9325 24.5371C15.6523 24.5371 15.4946 24.3531 15.4345 23.9571C15.2791 22.9502 14.6903 22.4397 13.6852 22.4397C13.2031 22.4397 12.7731 22.6024 12.4067 22.9223C12.038 23.2455 11.8508 23.65 11.8508 24.1251C11.8508 24.6474 12.0879 25.0979 12.5564 25.4617C13.0147 25.8191 13.7385 26 14.7073 26C16.696 26 18.2978 25.2595 19.4685 23.7988C20.6098 22.3766 21.6296 19.942 22.342 16.9457L22.8457 14.8782H25.4186L25.8383 13.3362H23.2087L23.9563 9.74593C24.0664 9.23334 24.3114 8.37297 24.7175 8.37297C24.9921 8.37297 25.2847 8.65869 25.5876 9.22371C26.0664 10.1034 26.6574 10.5485 27.3449 10.5485C27.8236 10.5485 28.224 10.3912 28.5349 10.0819C28.8434 9.77375 29 9.40991 29 8.99899C29 8.38581 28.6812 7.89034 28.0505 7.5265H28.0516Z" fill="black"/>
</svg>
